<svg width="1438" height="860" viewBox="0 0 1438 860" fill="none" xmlns="http://www.w3.org/2000/svg">
<line x1="4.37114e-08" y1="61.3284" x2="1438" y2="61.3285" stroke="url(#paint0_linear_168_14)"/>
<line x1="4.37114e-08" y1="133.116" x2="1438" y2="133.116" stroke="url(#paint1_linear_168_14)"/>
<line x1="4.37114e-08" y1="204.904" x2="1438" y2="204.904" stroke="url(#paint2_linear_168_14)"/>
<line x1="4.37114e-08" y1="276.692" x2="1438" y2="276.692" stroke="url(#paint3_linear_168_14)"/>
<line x1="4.37114e-08" y1="348.48" x2="1438" y2="348.48" stroke="url(#paint4_linear_168_14)"/>
<line x1="4.37114e-08" y1="420.268" x2="1438" y2="420.268" stroke="url(#paint5_linear_168_14)"/>
<line x1="4.37114e-08" y1="492.055" x2="1438" y2="492.055" stroke="url(#paint6_linear_168_14)"/>
<line x1="4.37114e-08" y1="563.843" x2="1438" y2="563.843" stroke="url(#paint7_linear_168_14)"/>
<line x1="4.37114e-08" y1="635.631" x2="1438" y2="635.631" stroke="url(#paint8_linear_168_14)"/>
<line x1="4.37114e-08" y1="707.419" x2="1438" y2="707.419" stroke="url(#paint9_linear_168_14)"/>
<line x1="-0.5" y1="1188" x2="-0.499874" y2="-250" stroke="url(#paint10_linear_168_14)"/>
<line x1="71.2878" y1="1188" x2="71.288" y2="-250" stroke="url(#paint11_linear_168_14)"/>
<line x1="143.076" y1="1188" x2="143.076" y2="-250" stroke="url(#paint12_linear_168_14)"/>
<line x1="214.863" y1="1188" x2="214.864" y2="-250" stroke="url(#paint13_linear_168_14)"/>
<line x1="286.651" y1="1188" x2="286.651" y2="-250" stroke="url(#paint14_linear_168_14)"/>
<line x1="358.439" y1="1188" x2="358.439" y2="-250" stroke="url(#paint15_linear_168_14)"/>
<line x1="430.227" y1="1188" x2="430.227" y2="-250" stroke="url(#paint16_linear_168_14)"/>
<line x1="502.015" y1="1188" x2="502.015" y2="-250" stroke="url(#paint17_linear_168_14)"/>
<line x1="573.803" y1="1188" x2="573.803" y2="-250" stroke="url(#paint18_linear_168_14)"/>
<line x1="645.59" y1="1188" x2="645.591" y2="-250" stroke="url(#paint19_linear_168_14)"/>
<line x1="717.378" y1="1188" x2="717.378" y2="-250" stroke="url(#paint20_linear_168_14)"/>
<line x1="717.378" y1="1188" x2="717.378" y2="-250" stroke="url(#paint21_linear_168_14)"/>
<line x1="789.166" y1="1188" x2="789.166" y2="-250" stroke="url(#paint22_linear_168_14)"/>
<line x1="860.954" y1="1188" x2="860.954" y2="-250" stroke="url(#paint23_linear_168_14)"/>
<line x1="932.742" y1="1188" x2="932.742" y2="-250" stroke="url(#paint24_linear_168_14)"/>
<line x1="1004.53" y1="1188" x2="1004.53" y2="-250" stroke="url(#paint25_linear_168_14)"/>
<line x1="1076.32" y1="1188" x2="1076.32" y2="-250" stroke="url(#paint26_linear_168_14)"/>
<line x1="1148.11" y1="1188" x2="1148.11" y2="-250" stroke="url(#paint27_linear_168_14)"/>
<line x1="1219.89" y1="1188" x2="1219.89" y2="-250" stroke="url(#paint28_linear_168_14)"/>
<line x1="1291.68" y1="1188" x2="1291.68" y2="-250" stroke="url(#paint29_linear_168_14)"/>
<line x1="1363.47" y1="1188" x2="1363.47" y2="-250" stroke="url(#paint30_linear_168_14)"/>
<line x1="1435.26" y1="1188" x2="1435.26" y2="-250" stroke="url(#paint31_linear_168_14)"/>
<defs>
<linearGradient id="paint0_linear_168_14" x1="719" y1="61.8284" x2="719" y2="62.8284" gradientUnits="userSpaceOnUse">
<stop stop-color="#1E1130"/>
<stop offset="1" stop-color="#9F94FF"/>
</linearGradient>
<linearGradient id="paint1_linear_168_14" x1="719" y1="133.616" x2="719" y2="134.616" gradientUnits="userSpaceOnUse">
<stop stop-color="#1E1130"/>
<stop offset="1" stop-color="#9F94FF"/>
</linearGradient>
<linearGradient id="paint2_linear_168_14" x1="719" y1="205.404" x2="719" y2="206.404" gradientUnits="userSpaceOnUse">
<stop stop-color="#1E1130"/>
<stop offset="1" stop-color="#9F94FF"/>
</linearGradient>
<linearGradient id="paint3_linear_168_14" x1="719" y1="277.192" x2="719" y2="278.192" gradientUnits="userSpaceOnUse">
<stop stop-color="#1E1130"/>
<stop offset="1" stop-color="#9F94FF"/>
</linearGradient>
<linearGradient id="paint4_linear_168_14" x1="719" y1="348.98" x2="719" y2="349.98" gradientUnits="userSpaceOnUse">
<stop stop-color="#1E1130"/>
<stop offset="1" stop-color="#9F94FF"/>
</linearGradient>
<linearGradient id="paint5_linear_168_14" x1="719" y1="420.768" x2="719" y2="421.768" gradientUnits="userSpaceOnUse">
<stop stop-color="#1E1130"/>
<stop offset="1" stop-color="#9F94FF"/>
</linearGradient>
<linearGradient id="paint6_linear_168_14" x1="719" y1="492.555" x2="719" y2="493.555" gradientUnits="userSpaceOnUse">
<stop stop-color="#1E1130"/>
<stop offset="1" stop-color="#9F94FF"/>
</linearGradient>
<linearGradient id="paint7_linear_168_14" x1="719" y1="564.343" x2="719" y2="565.343" gradientUnits="userSpaceOnUse">
<stop stop-color="#1E1130"/>
<stop offset="1" stop-color="#9F94FF"/>
</linearGradient>
<linearGradient id="paint8_linear_168_14" x1="719" y1="636.131" x2="719" y2="637.131" gradientUnits="userSpaceOnUse">
<stop stop-color="#1E1130"/>
<stop offset="1" stop-color="#9F94FF"/>
</linearGradient>
<linearGradient id="paint9_linear_168_14" x1="719" y1="707.919" x2="719" y2="708.919" gradientUnits="userSpaceOnUse">
<stop stop-color="#1E1130"/>
<stop offset="1" stop-color="#9F94FF"/>
</linearGradient>
<linearGradient id="paint10_linear_168_14" x1="6.2857e-05" y1="469" x2="1.00006" y2="469" gradientUnits="userSpaceOnUse">
<stop stop-color="#1E1130"/>
<stop offset="1" stop-color="#9F94FF"/>
</linearGradient>
<linearGradient id="paint11_linear_168_14" x1="71.7879" y1="469" x2="72.7879" y2="469" gradientUnits="userSpaceOnUse">
<stop stop-color="#1E1130"/>
<stop offset="1" stop-color="#9F94FF"/>
</linearGradient>
<linearGradient id="paint12_linear_168_14" x1="143.576" y1="469" x2="144.576" y2="469" gradientUnits="userSpaceOnUse">
<stop stop-color="#1E1130"/>
<stop offset="1" stop-color="#9F94FF"/>
</linearGradient>
<linearGradient id="paint13_linear_168_14" x1="215.364" y1="469" x2="216.364" y2="469" gradientUnits="userSpaceOnUse">
<stop stop-color="#1E1130"/>
<stop offset="1" stop-color="#9F94FF"/>
</linearGradient>
<linearGradient id="paint14_linear_168_14" x1="287.151" y1="469" x2="288.151" y2="469" gradientUnits="userSpaceOnUse">
<stop stop-color="#1E1130"/>
<stop offset="1" stop-color="#9F94FF"/>
</linearGradient>
<linearGradient id="paint15_linear_168_14" x1="358.939" y1="469" x2="359.939" y2="469" gradientUnits="userSpaceOnUse">
<stop stop-color="#1E1130"/>
<stop offset="1" stop-color="#9F94FF"/>
</linearGradient>
<linearGradient id="paint16_linear_168_14" x1="430.727" y1="469" x2="431.727" y2="469" gradientUnits="userSpaceOnUse">
<stop stop-color="#1E1130"/>
<stop offset="1" stop-color="#9F94FF"/>
</linearGradient>
<linearGradient id="paint17_linear_168_14" x1="502.515" y1="469" x2="503.515" y2="469" gradientUnits="userSpaceOnUse">
<stop stop-color="#1E1130"/>
<stop offset="1" stop-color="#9F94FF"/>
</linearGradient>
<linearGradient id="paint18_linear_168_14" x1="574.303" y1="469" x2="575.303" y2="469" gradientUnits="userSpaceOnUse">
<stop stop-color="#1E1130"/>
<stop offset="1" stop-color="#9F94FF"/>
</linearGradient>
<linearGradient id="paint19_linear_168_14" x1="646.091" y1="469" x2="647.091" y2="469" gradientUnits="userSpaceOnUse">
<stop stop-color="#1E1130"/>
<stop offset="1" stop-color="#9F94FF"/>
</linearGradient>
<linearGradient id="paint20_linear_168_14" x1="717.878" y1="469" x2="718.878" y2="469" gradientUnits="userSpaceOnUse">
<stop stop-color="#1E1130"/>
<stop offset="1" stop-color="#9F94FF"/>
</linearGradient>
<linearGradient id="paint21_linear_168_14" x1="717.878" y1="469" x2="718.878" y2="469" gradientUnits="userSpaceOnUse">
<stop stop-color="#1E1130"/>
<stop offset="1" stop-color="#9F94FF"/>
</linearGradient>
<linearGradient id="paint22_linear_168_14" x1="789.666" y1="469" x2="790.666" y2="469" gradientUnits="userSpaceOnUse">
<stop stop-color="#1E1130"/>
<stop offset="1" stop-color="#9F94FF"/>
</linearGradient>
<linearGradient id="paint23_linear_168_14" x1="861.454" y1="469" x2="862.454" y2="469" gradientUnits="userSpaceOnUse">
<stop stop-color="#1E1130"/>
<stop offset="1" stop-color="#9F94FF"/>
</linearGradient>
<linearGradient id="paint24_linear_168_14" x1="933.242" y1="469" x2="934.242" y2="469" gradientUnits="userSpaceOnUse">
<stop stop-color="#1E1130"/>
<stop offset="1" stop-color="#9F94FF"/>
</linearGradient>
<linearGradient id="paint25_linear_168_14" x1="1005.03" y1="469" x2="1006.03" y2="469" gradientUnits="userSpaceOnUse">
<stop stop-color="#1E1130"/>
<stop offset="1" stop-color="#9F94FF"/>
</linearGradient>
<linearGradient id="paint26_linear_168_14" x1="1076.82" y1="469" x2="1077.82" y2="469" gradientUnits="userSpaceOnUse">
<stop stop-color="#1E1130"/>
<stop offset="1" stop-color="#9F94FF"/>
</linearGradient>
<linearGradient id="paint27_linear_168_14" x1="1148.61" y1="469" x2="1149.61" y2="469" gradientUnits="userSpaceOnUse">
<stop stop-color="#1E1130"/>
<stop offset="1" stop-color="#9F94FF"/>
</linearGradient>
<linearGradient id="paint28_linear_168_14" x1="1220.39" y1="469" x2="1221.39" y2="469" gradientUnits="userSpaceOnUse">
<stop stop-color="#1E1130"/>
<stop offset="1" stop-color="#9F94FF"/>
</linearGradient>
<linearGradient id="paint29_linear_168_14" x1="1292.18" y1="469" x2="1293.18" y2="469" gradientUnits="userSpaceOnUse">
<stop stop-color="#1E1130"/>
<stop offset="1" stop-color="#9F94FF"/>
</linearGradient>
<linearGradient id="paint30_linear_168_14" x1="1363.97" y1="469" x2="1364.97" y2="469" gradientUnits="userSpaceOnUse">
<stop stop-color="#1E1130"/>
<stop offset="1" stop-color="#9F94FF"/>
</linearGradient>
<linearGradient id="paint31_linear_168_14" x1="1435.76" y1="469" x2="1436.76" y2="469" gradientUnits="userSpaceOnUse">
<stop stop-color="#1E1130"/>
<stop offset="1" stop-color="#9F94FF"/>
</linearGradient>
</defs>
</svg>
